<?xml version="1.0" encoding="utf-8" ?><svg xmlns="http://www.w3.org/2000/svg" xmlns:xlink="http://www.w3.org/1999/xlink" width="3000" height="3000" viewBox="0 0 3000 3000"><path transform="scale(2.92969 2.92969)" d="M494.661 261.695C628.486 253.828 743.39 355.848 751.419 489.663C759.447 623.479 657.566 738.506 523.76 746.696C389.727 754.9 274.46 652.806 266.418 518.763C258.376 384.719 360.608 269.576 494.661 261.695ZM513.739 584.132C557.779 581.849 591.622 544.283 589.314 500.244C587.005 456.205 549.42 422.384 505.383 424.718C461.381 427.05 427.594 464.598 429.9 508.601C432.207 552.603 469.735 586.413 513.739 584.132Z"/><path transform="scale(2.92969 2.92969)" d="M505.028 483.752C516.229 481.215 527.367 488.235 529.91 499.435C532.452 510.636 525.437 521.777 514.238 524.325C503.032 526.874 491.881 519.853 489.337 508.646C486.793 497.438 493.819 486.291 505.028 483.752Z"/><path fill="#5287D7" transform="scale(2.92969 2.92969)" d="M759.74 655.734C803.89 652.426 842.396 685.459 845.843 729.598C849.289 773.738 816.379 812.347 772.25 815.934C727.924 819.536 689.104 786.446 685.642 742.109C682.18 697.772 715.392 659.056 759.74 655.734Z"/><path fill="#F3F160" transform="scale(2.92969 2.92969)" d="M225.943 618.279C261.756 618.742 290.411 648.151 289.943 683.964C289.476 719.776 260.062 748.428 224.25 747.956C188.444 747.484 159.799 718.077 160.266 682.271C160.734 646.465 190.137 617.816 225.943 618.279Z"/><path fill="#FE5C55" transform="scale(2.92969 2.92969)" d="M342.339 160.149C374.369 156.326 403.409 179.256 407.121 211.299C410.833 243.342 387.804 272.303 355.748 275.904C323.848 279.488 295.059 256.595 291.366 224.708C287.672 192.821 310.465 163.953 342.339 160.149Z"/><path fill="#78ED6B" transform="scale(2.92969 2.92969)" d="M808.187 314.732C832.418 314.447 852.295 333.854 852.588 358.085C852.882 382.316 833.481 402.199 809.251 402.502C785.008 402.804 765.112 383.392 764.818 359.149C764.525 334.905 783.944 315.017 808.187 314.732Z"/><path fill="#223380" transform="scale(2.92969 2.92969)" d="M550.762 779.835C574.17 778.635 594.129 796.617 595.368 820.023C596.608 843.429 578.659 863.418 555.255 864.697C531.795 865.978 511.749 847.978 510.507 824.516C509.264 801.054 527.298 781.038 550.762 779.835Z"/></svg>